<svg width="256" height="256" viewBox="0 0 256 256" fill="none" xmlns="http://www.w3.org/2000/svg">
<rect x="20" y="65" width="162" height="162" rx="16" fill="url(#paint0_linear)"/>
<g filter="url(#filter0_d)">
<path d="M89.7238 193.605C80.9081 195.218 73.0302 196.168 67 196.588L89.7238 193.605C92.146 193.161 94.639 192.668 97.1838 192.122C104.125 190.405 109.245 188.286 110.505 188.028C111.645 187.795 113.627 180.356 114.822 175.185C114.963 174.425 115.125 173.687 115.313 172.987C115.172 173.643 115.006 174.387 114.822 175.185C114.771 175.457 114.724 175.732 114.678 176.009C113.864 181.012 119.426 184.164 121.85 179.712C121.589 179.49 121.989 177.654 122.675 175.203C123.196 173.344 123.324 173.858 123.725 175.747C123.808 176.139 123.756 176.267 123.42 176.486C123.152 176.66 122.779 177.043 122.321 178.753C122.494 179.599 123.536 180.078 124.469 180.3C125.305 180.499 126.227 180.674 127.026 180.358C127.454 180.189 127.855 179.898 128.212 179.554C129.018 178.526 132.472 166.699 134.099 160.915L129.628 177.601C129.165 179.33 131.104 179.363 131.915 177.767C133.527 174.595 135.935 169.708 137.159 166.502C137.708 165.064 138.444 163.674 139.491 162.544C155.035 145.786 163.894 126.086 166.777 117.147C167 116.453 167.324 115.89 167.678 116.527C168.117 117.318 168.786 118.779 169.618 120.623C172.662 127.372 175.588 126.204 172.571 119.442C172.086 118.354 171.609 117.305 171.154 116.321C170.139 114.125 170.127 111.6 170.998 109.343C174.929 99.1562 181.148 78.1867 182.002 74.9987C182.974 71.3712 197.508 95.4825 198.091 93.306C198.535 91.6491 190.209 77.1733 185.379 69.1148C184.91 68.332 184.646 67.4763 184.795 66.576C185.328 63.3476 187.322 55.378 188.957 49.1076C189.618 46.5755 190.449 44.4508 192.498 46.078C196.133 48.9638 200.249 48.0886 197.108 44.6727C196.819 44.3592 196.533 44.0551 196.251 43.7618C194.401 41.8382 193.855 38.8001 195.546 36.7346C202.029 28.8114 208.026 28.6425 210.456 29.748C219.081 31.5529 235.338 44.6885 233.041 82.6763C232.93 84.5018 232.155 86.2295 230.887 87.5473C225.52 93.1258 217.97 100.764 212.368 105.902C219.726 101.691 230.006 96.5837 231.568 96.0554C234.066 95.2103 221.104 130.046 198.812 156.24C197.65 157.605 196.039 158.503 194.275 158.823L178.184 161.74C175.026 162.313 170.004 164.311 173.211 164.421C176.617 164.538 183.412 168.915 180.6 170.84L175.818 174.113C175.072 174.625 174.194 174.904 173.29 174.923C170.446 174.983 166.68 175.1 162.741 175.285C157.454 175.533 157.282 179.518 162.573 179.43C152.327 180.734 133.379 183.336 129.205 184.583C128.559 184.777 128.709 185.207 129.318 185.498C132.951 187.237 140.222 190.132 146.352 190.635C142.437 190.7 135.94 190.871 133.208 191.134C132.195 191.231 132.542 191.807 133.389 192.37C134.847 193.339 137.096 194.699 139.524 195.804C132.092 193.553 117.876 189.537 120.467 191.475C123.506 194.026 122.213 195.273 118.924 193.054C117.007 191.761 115.328 190.81 114.222 190.532C113.905 190.452 113.58 190.473 113.257 190.515L90.3718 193.52L89.7238 193.605Z" fill="url(#paint1_linear)"/>
<path d="M210.456 29.748C207.517 60.0633 195.544 127.77 171.165 156.073C146.785 184.375 91.5636 194.876 67 196.588L90.3718 193.52M210.456 29.748C219.081 31.5529 235.338 44.6885 233.041 82.6763C232.93 84.5018 232.155 86.2295 230.887 87.5473C221.773 97.0197 206.366 112.43 204.891 111.457C202.909 110.148 229.003 96.9232 231.568 96.0554C234.066 95.2103 221.104 130.046 198.812 156.24C197.65 157.605 196.039 158.503 194.275 158.823L178.184 161.74C175.026 162.313 170.004 164.311 173.211 164.421V164.421C176.617 164.538 183.412 168.915 180.6 170.84L175.818 174.113C175.072 174.625 174.194 174.904 173.29 174.923C170.446 174.983 166.68 175.1 162.741 175.285C157.454 175.533 157.282 179.518 162.573 179.43V179.43C152.327 180.734 133.379 183.336 129.205 184.583C128.559 184.777 128.709 185.207 129.318 185.498C132.951 187.237 140.222 190.132 146.352 190.635C142.437 190.7 135.94 190.871 133.208 191.134C132.195 191.231 132.542 191.807 133.389 192.37C134.847 193.339 137.096 194.699 139.524 195.804C132.092 193.553 117.876 189.537 120.467 191.475V191.475C123.506 194.026 122.213 195.273 118.924 193.054C117.007 191.761 115.328 190.81 114.222 190.532C113.905 190.452 113.58 190.473 113.257 190.515L90.3718 193.52M210.456 29.748C208.026 28.6425 202.029 28.8114 195.546 36.7346C193.855 38.8001 194.401 41.8382 196.251 43.7618C196.533 44.0551 196.819 44.3592 197.108 44.6727C200.249 48.0886 196.133 48.9638 192.498 46.078V46.078C190.449 44.4508 189.618 46.5755 188.957 49.1076C187.322 55.378 185.328 63.3476 184.795 66.576C184.646 67.4763 184.91 68.332 185.379 69.1148C190.209 77.1733 198.535 91.6491 198.091 93.306C197.508 95.4825 182.974 71.3712 182.002 74.9987C181.148 78.1867 174.929 99.1562 170.998 109.343C170.127 111.6 170.139 114.125 171.154 116.321C171.609 117.305 172.086 118.354 172.571 119.442C175.588 126.204 172.662 127.372 169.618 120.623C168.786 118.779 168.117 117.318 167.678 116.527C167.324 115.89 167 116.453 166.777 117.147C163.894 126.086 155.035 145.786 139.491 162.544C138.444 163.674 137.708 165.064 137.159 166.502C135.935 169.708 133.527 174.595 131.915 177.767C131.104 179.363 129.165 179.33 129.628 177.601V177.601M129.628 177.601C131.054 172.281 133.943 161.495 134.099 160.915C132.472 166.699 129.018 178.526 128.212 179.554M129.628 177.601C129.356 178.15 128.854 178.937 128.212 179.554M122.321 178.753C122.494 179.599 123.536 180.078 124.469 180.3C125.305 180.499 126.227 180.674 127.026 180.358C127.454 180.189 127.855 179.898 128.212 179.554M122.321 178.753C122.779 177.043 123.152 176.66 123.42 176.486C123.756 176.267 123.808 176.139 123.725 175.747V175.747C123.324 173.858 123.196 173.344 122.675 175.203C121.989 177.654 121.589 179.49 121.85 179.712M122.321 178.753C122.208 179.01 122.055 179.336 121.85 179.712M90.3718 193.52C100.637 191.872 108.86 188.365 110.505 188.028C111.821 187.759 114.259 177.889 115.313 172.987C115.058 173.937 114.849 174.96 114.678 176.009C113.864 181.012 119.426 184.164 121.85 179.712V179.712" stroke="url(#paint2_linear)" stroke-width="0.25"/>
</g>
<defs>
<filter id="filter0_d" x="60.9838" y="23.1326" width="182.402" height="183.58" filterUnits="userSpaceOnUse" color-interpolation-filters="sRGB">
<feFlood flood-opacity="0" result="BackgroundImageFix"/>
<feColorMatrix in="SourceAlpha" type="matrix" values="0 0 0 0 0 0 0 0 0 0 0 0 0 0 0 0 0 0 127 0"/>
<feOffset dx="2" dy="2"/>
<feGaussianBlur stdDeviation="4"/>
<feColorMatrix type="matrix" values="0 0 0 0 0 0 0 0 0 0 0 0 0 0 0 0 0 0 0.25 0"/>
<feBlend mode="normal" in2="BackgroundImageFix" result="effect1_dropShadow"/>
<feBlend mode="normal" in="SourceGraphic" in2="effect1_dropShadow" result="shape"/>
</filter>
<linearGradient id="paint0_linear" x1="20" y1="65" x2="178" y2="224.5" gradientUnits="userSpaceOnUse">
<stop offset="0.421875" stop-color="#0D3E59"/>
<stop offset="0.421975" stop-color="#186C9B"/>
<stop offset="0.588542" stop-color="#186C9B"/>
</linearGradient>
<linearGradient id="paint1_linear" x1="84.5" y1="72" x2="230" y2="219" gradientUnits="userSpaceOnUse">
<stop offset="0.551983" stop-color="#1D95D8"/>
<stop offset="0.552083" stop-color="#1C80C9"/>
</linearGradient>
<linearGradient id="paint2_linear" x1="84.5" y1="72" x2="230" y2="219" gradientUnits="userSpaceOnUse">
<stop offset="0.551983" stop-color="#1D95D8"/>
<stop offset="0.552083" stop-color="#1C80C9"/>
</linearGradient>
</defs>
</svg>
